<svg xmlns="http://www.w3.org/2000/svg" viewBox="0 0 210 510" style="width: 100%;/* border: 1px solid black; */"><g transform="translate(10, 20)"><g transform="translate(0,-6)"><path d="M12 .587l3.668 7.568 8.332 1.151-6.064 5.828 1.48 8.279-7.416-3.967-7.417 3.967 1.481-8.279-6.064-5.828 8.332-1.151z" transform="scale(0.5) translate(-12,-12)" fill="white" stroke="black"></path></g><text x="10">Succeeded Side Project</text><g transform="translate(0,20)"><g transform="translate(0,-6)"><path d="M12 0c-6.627 0-12 5.373-12 12s5.373 12 12 12 12-5.373 12-12-5.373-12-12-12zm7 14h-14v-4h14v4z" transform="scale(0.5) translate(-12,-12)" fill="white" stroke="black"></path></g><text x="10">Failed Side Project</text></g></g><g><rect x="60" y="55" width="90" fill="#1f77b4" height="11.097560975609756"></rect><rect x="60" y="66.09756097560975" width="90" fill="#ff7f0e" height="11.097560975609756"></rect><rect x="60" y="77.1951219512195" width="90" fill="#ff7f0e" height="11.097560975609756"></rect><rect x="60" y="88.29268292682927" width="90" fill="#ff7f0e" height="11.097560975609756"></rect><rect x="60" y="99.39024390243902" width="90" fill="#ff7f0e" height="11.097560975609756"></rect><rect x="60" y="110.48780487804878" width="90" fill="#2ca02c" height="11.097560975609756"></rect><rect x="60" y="121.58536585365854" width="90" fill="#2ca02c" height="11.097560975609756"></rect><rect x="60" y="132.6829268292683" width="90" fill="#2ca02c" height="11.097560975609756"></rect><rect x="60" y="143.78048780487805" width="90" fill="#2ca02c" height="11.097560975609756"></rect><rect x="60" y="154.8780487804878" width="90" fill="#2ca02c" height="11.097560975609756"></rect><rect x="60" y="165.97560975609755" width="90" fill="#2ca02c" height="11.097560975609756"></rect><rect x="60" y="177.0731707317073" width="90" fill="#2ca02c" height="11.097560975609756"></rect><rect x="60" y="188.1707317073171" width="90" fill="#d62728" height="11.097560975609756"></rect><rect x="60" y="199.26829268292684" width="90" fill="#d62728" height="11.097560975609756"></rect><rect x="60" y="210.3658536585366" width="90" fill="#d62728" height="11.097560975609756"></rect><rect x="60" y="221.46341463414635" width="90" fill="#d62728" height="11.097560975609756"></rect><rect x="60" y="232.5609756097561" width="90" fill="#d62728" height="11.097560975609756"></rect><rect x="60" y="243.65853658536585" width="90" fill="#d62728" height="11.097560975609756"></rect><rect x="60" y="254.7560975609756" width="90" fill="#d62728" height="11.097560975609756"></rect><rect x="60" y="265.8536585365854" width="90" fill="#d62728" height="11.097560975609756"></rect><rect x="60" y="276.9512195121951" width="90" fill="#d62728" height="11.097560975609756"></rect><rect x="60" y="288.0487804878049" width="90" fill="#9467bd" height="11.097560975609756"></rect><rect x="60" y="299.1463414634146" width="90" fill="#9467bd" height="11.097560975609756"></rect><rect x="60" y="310.2439024390244" width="90" fill="#9467bd" height="11.097560975609756"></rect><rect x="60" y="321.3414634146342" width="90" fill="#9467bd" height="11.097560975609756"></rect><rect x="60" y="332.4390243902439" width="90" fill="#9467bd" height="11.097560975609756"></rect><rect x="60" y="343.5365853658537" width="90" fill="#9467bd" height="11.097560975609756"></rect><rect x="60" y="354.6341463414634" width="90" fill="#9467bd" height="11.097560975609756"></rect><rect x="60" y="365.7317073170732" width="90" fill="#9467bd" height="11.097560975609756"></rect><rect x="60" y="376.8292682926829" width="90" fill="#9467bd" height="11.097560975609756"></rect><rect x="60" y="387.9268292682927" width="90" fill="#9467bd" height="11.097560975609756"></rect><rect x="60" y="399.0243902439024" width="90" fill="#9467bd" height="11.097560975609756"></rect><rect x="60" y="410.1219512195122" width="90" fill="#9467bd" height="11.097560975609756"></rect><rect x="60" y="421.219512195122" width="90" fill="#9467bd" height="11.097560975609756"></rect><rect x="60" y="432.3170731707317" width="90" fill="#9467bd" height="11.097560975609756"></rect><rect x="60" y="443.4146341463415" width="90" fill="#8c564b" height="11.097560975609756"></rect><rect x="60" y="454.5121951219512" width="90" fill="#8c564b" height="11.097560975609756"></rect><rect x="60" y="465.609756097561" width="90" fill="#8c564b" height="11.097560975609756"></rect><rect x="60" y="476.7073170731707" width="90" fill="#8c564b" height="11.097560975609756"></rect><rect x="60" y="487.8048780487805" width="90" fill="#8c564b" height="11.097560975609756"></rect><rect x="60" y="498.9024390243902" width="90" fill="#8c564b" height="11.097560975609756"></rect><g transform="translate(30,0)"><line x1="90" y1="60.548780487804876" x2="60" y2="71.64634146341463" stroke-width="2" stroke="lightgray"></line></g><g transform="translate(30,0)"><line x1="60" y1="71.64634146341463" x2="60" y2="82.74390243902438" stroke-width="2" stroke="lightgray"></line></g><g transform="translate(30,0)"><line x1="60" y1="82.74390243902438" x2="60" y2="93.84146341463415" stroke-width="2" stroke="lightgray"></line></g><g transform="translate(30,0)"><line x1="60" y1="93.84146341463415" x2="60" y2="104.9390243902439" stroke-width="2" stroke="lightgray"></line></g><g transform="translate(30,0)"><line x1="60" y1="104.9390243902439" x2="90" y2="116.03658536585365" stroke-width="2" stroke="lightgray"></line></g><g transform="translate(30,0)"><line x1="90" y1="116.03658536585365" x2="90" y2="127.13414634146342" stroke-width="2" stroke="lightgray"></line></g><g transform="translate(30,0)"><line x1="90" y1="127.13414634146342" x2="60" y2="138.2317073170732" stroke-width="2" stroke="lightgray"></line></g><g transform="translate(30,0)"><line x1="60" y1="138.2317073170732" x2="90" y2="149.32926829268294" stroke-width="2" stroke="lightgray"></line></g><g transform="translate(30,0)"><line x1="90" y1="149.32926829268294" x2="60" y2="160.4268292682927" stroke-width="2" stroke="lightgray"></line></g><g transform="translate(30,0)"><line x1="60" y1="160.4268292682927" x2="60" y2="171.52439024390245" stroke-width="2" stroke="lightgray"></line></g><g transform="translate(30,0)"><line x1="60" y1="171.52439024390245" x2="90" y2="182.6219512195122" stroke-width="2" stroke="lightgray"></line></g><g transform="translate(30,0)"><line x1="90" y1="182.6219512195122" x2="60" y2="193.71951219512198" stroke-width="2" stroke="lightgray"></line></g><g transform="translate(30,0)"><line x1="60" y1="193.71951219512198" x2="60" y2="204.81707317073173" stroke-width="2" stroke="lightgray"></line></g><g transform="translate(30,0)"><line x1="60" y1="204.81707317073173" x2="60" y2="215.91463414634148" stroke-width="2" stroke="lightgray"></line></g><g transform="translate(30,0)"><line x1="60" y1="215.91463414634148" x2="90" y2="227.01219512195124" stroke-width="2" stroke="lightgray"></line></g><g transform="translate(30,0)"><line x1="90" y1="227.01219512195124" x2="60" y2="238.109756097561" stroke-width="2" stroke="lightgray"></line></g><g transform="translate(30,0)"><line x1="60" y1="238.109756097561" x2="90" y2="249.20731707317074" stroke-width="2" stroke="lightgray"></line></g><g transform="translate(30,0)"><line x1="90" y1="249.20731707317074" x2="60" y2="260.3048780487805" stroke-width="2" stroke="lightgray"></line></g><g transform="translate(30,0)"><line x1="60" y1="260.3048780487805" x2="60" y2="271.4024390243903" stroke-width="2" stroke="lightgray"></line></g><g transform="translate(30,0)"><line x1="60" y1="271.4024390243903" x2="60" y2="282.5" stroke-width="2" stroke="lightgray"></line></g><g transform="translate(30,0)"><line x1="60" y1="282.5" x2="90" y2="293.5975609756098" stroke-width="2" stroke="lightgray"></line></g><g transform="translate(30,0)"><line x1="90" y1="293.5975609756098" x2="90" y2="304.6951219512195" stroke-width="2" stroke="lightgray"></line></g><g transform="translate(30,0)"><line x1="90" y1="304.6951219512195" x2="60" y2="315.7926829268293" stroke-width="2" stroke="lightgray"></line></g><g transform="translate(30,0)"><line x1="60" y1="315.7926829268293" x2="60" y2="326.89024390243907" stroke-width="2" stroke="lightgray"></line></g><g transform="translate(30,0)"><line x1="60" y1="326.89024390243907" x2="60" y2="337.9878048780488" stroke-width="2" stroke="lightgray"></line></g><g transform="translate(30,0)"><line x1="60" y1="337.9878048780488" x2="60" y2="349.0853658536586" stroke-width="2" stroke="lightgray"></line></g><g transform="translate(30,0)"><line x1="60" y1="349.0853658536586" x2="60" y2="360.1829268292683" stroke-width="2" stroke="lightgray"></line></g><g transform="translate(30,0)"><line x1="60" y1="360.1829268292683" x2="90" y2="371.2804878048781" stroke-width="2" stroke="lightgray"></line></g><g transform="translate(30,0)"><line x1="90" y1="371.2804878048781" x2="90" y2="382.3780487804878" stroke-width="2" stroke="lightgray"></line></g><g transform="translate(30,0)"><line x1="90" y1="382.3780487804878" x2="60" y2="393.4756097560976" stroke-width="2" stroke="lightgray"></line></g><g transform="translate(30,0)"><line x1="60" y1="393.4756097560976" x2="60" y2="404.5731707317073" stroke-width="2" stroke="lightgray"></line></g><g transform="translate(30,0)"><line x1="60" y1="404.5731707317073" x2="60" y2="415.6707317073171" stroke-width="2" stroke="lightgray"></line></g><g transform="translate(30,0)"><line x1="60" y1="415.6707317073171" x2="60" y2="426.76829268292687" stroke-width="2" stroke="lightgray"></line></g><g transform="translate(30,0)"><line x1="60" y1="426.76829268292687" x2="60" y2="437.8658536585366" stroke-width="2" stroke="lightgray"></line></g><g transform="translate(30,0)"><line x1="60" y1="437.8658536585366" x2="90" y2="448.9634146341464" stroke-width="2" stroke="lightgray"></line></g><g transform="translate(30,0)"><line x1="90" y1="448.9634146341464" x2="90" y2="460.0609756097561" stroke-width="2" stroke="lightgray"></line></g><g transform="translate(30,0)"><line x1="90" y1="460.0609756097561" x2="90" y2="471.1585365853659" stroke-width="2" stroke="lightgray"></line></g><g transform="translate(30,0)"><line x1="90" y1="471.1585365853659" x2="90" y2="482.2560975609756" stroke-width="2" stroke="lightgray"></line></g><g transform="translate(30,0)"><line x1="90" y1="482.2560975609756" x2="90" y2="493.3536585365854" stroke-width="2" stroke="lightgray"></line></g><g transform="translate(30,0)"><line x1="90" y1="493.3536585365854" x2="90" y2="504.4512195121951" stroke-width="2" stroke="lightgray"></line></g><g transform="translate(30,0)"><g transform="translate(90,60.548780487804876)"><path d="M12 .587l3.668 7.568 8.332 1.151-6.064 5.828 1.48 8.279-7.416-3.967-7.417 3.967 1.481-8.279-6.064-5.828 8.332-1.151z" transform="scale(0.45) translate(-12,-12)" fill="white" stroke="black"></path></g></g><g transform="translate(30,0)"><g transform="translate(60,71.64634146341463)"><path d="M12 0c-6.627 0-12 5.373-12 12s5.373 12 12 12 12-5.373 12-12-5.373-12-12-12zm7 14h-14v-4h14v4z" transform="scale(0.45) translate(-12,-12)" fill="white" stroke="black"></path></g></g><g transform="translate(30,0)"><g transform="translate(60,82.74390243902438)"><path d="M12 0c-6.627 0-12 5.373-12 12s5.373 12 12 12 12-5.373 12-12-5.373-12-12-12zm7 14h-14v-4h14v4z" transform="scale(0.45) translate(-12,-12)" fill="white" stroke="black"></path></g></g><g transform="translate(30,0)"><g transform="translate(60,93.84146341463415)"><path d="M12 0c-6.627 0-12 5.373-12 12s5.373 12 12 12 12-5.373 12-12-5.373-12-12-12zm7 14h-14v-4h14v4z" transform="scale(0.45) translate(-12,-12)" fill="white" stroke="black"></path></g></g><g transform="translate(30,0)"><g transform="translate(60,104.9390243902439)"><path d="M12 0c-6.627 0-12 5.373-12 12s5.373 12 12 12 12-5.373 12-12-5.373-12-12-12zm7 14h-14v-4h14v4z" transform="scale(0.45) translate(-12,-12)" fill="white" stroke="black"></path></g></g><g transform="translate(30,0)"><g transform="translate(90,116.03658536585365)"><path d="M12 .587l3.668 7.568 8.332 1.151-6.064 5.828 1.48 8.279-7.416-3.967-7.417 3.967 1.481-8.279-6.064-5.828 8.332-1.151z" transform="scale(0.45) translate(-12,-12)" fill="white" stroke="black"></path></g></g><g transform="translate(30,0)"><g transform="translate(90,127.13414634146342)"><path d="M12 .587l3.668 7.568 8.332 1.151-6.064 5.828 1.48 8.279-7.416-3.967-7.417 3.967 1.481-8.279-6.064-5.828 8.332-1.151z" transform="scale(0.45) translate(-12,-12)" fill="white" stroke="black"></path></g></g><g transform="translate(30,0)"><g transform="translate(60,138.2317073170732)"><path d="M12 0c-6.627 0-12 5.373-12 12s5.373 12 12 12 12-5.373 12-12-5.373-12-12-12zm7 14h-14v-4h14v4z" transform="scale(0.45) translate(-12,-12)" fill="white" stroke="black"></path></g></g><g transform="translate(30,0)"><g transform="translate(90,149.32926829268294)"><path d="M12 .587l3.668 7.568 8.332 1.151-6.064 5.828 1.48 8.279-7.416-3.967-7.417 3.967 1.481-8.279-6.064-5.828 8.332-1.151z" transform="scale(0.45) translate(-12,-12)" fill="white" stroke="black"></path></g></g><g transform="translate(30,0)"><g transform="translate(60,160.4268292682927)"><path d="M12 0c-6.627 0-12 5.373-12 12s5.373 12 12 12 12-5.373 12-12-5.373-12-12-12zm7 14h-14v-4h14v4z" transform="scale(0.45) translate(-12,-12)" fill="white" stroke="black"></path></g></g><g transform="translate(30,0)"><g transform="translate(60,171.52439024390245)"><path d="M12 0c-6.627 0-12 5.373-12 12s5.373 12 12 12 12-5.373 12-12-5.373-12-12-12zm7 14h-14v-4h14v4z" transform="scale(0.45) translate(-12,-12)" fill="white" stroke="black"></path></g></g><g transform="translate(30,0)"><g transform="translate(90,182.6219512195122)"><path d="M12 .587l3.668 7.568 8.332 1.151-6.064 5.828 1.48 8.279-7.416-3.967-7.417 3.967 1.481-8.279-6.064-5.828 8.332-1.151z" transform="scale(0.45) translate(-12,-12)" fill="white" stroke="black"></path></g></g><g transform="translate(30,0)"><g transform="translate(60,193.71951219512198)"><path d="M12 0c-6.627 0-12 5.373-12 12s5.373 12 12 12 12-5.373 12-12-5.373-12-12-12zm7 14h-14v-4h14v4z" transform="scale(0.45) translate(-12,-12)" fill="white" stroke="black"></path></g></g><g transform="translate(30,0)"><g transform="translate(60,204.81707317073173)"><path d="M12 0c-6.627 0-12 5.373-12 12s5.373 12 12 12 12-5.373 12-12-5.373-12-12-12zm7 14h-14v-4h14v4z" transform="scale(0.45) translate(-12,-12)" fill="white" stroke="black"></path></g></g><g transform="translate(30,0)"><g transform="translate(60,215.91463414634148)"><path d="M12 0c-6.627 0-12 5.373-12 12s5.373 12 12 12 12-5.373 12-12-5.373-12-12-12zm7 14h-14v-4h14v4z" transform="scale(0.45) translate(-12,-12)" fill="white" stroke="black"></path></g></g><g transform="translate(30,0)"><g transform="translate(90,227.01219512195124)"><path d="M12 .587l3.668 7.568 8.332 1.151-6.064 5.828 1.48 8.279-7.416-3.967-7.417 3.967 1.481-8.279-6.064-5.828 8.332-1.151z" transform="scale(0.45) translate(-12,-12)" fill="white" stroke="black"></path></g></g><g transform="translate(30,0)"><g transform="translate(60,238.109756097561)"><path d="M12 0c-6.627 0-12 5.373-12 12s5.373 12 12 12 12-5.373 12-12-5.373-12-12-12zm7 14h-14v-4h14v4z" transform="scale(0.45) translate(-12,-12)" fill="white" stroke="black"></path></g></g><g transform="translate(30,0)"><g transform="translate(90,249.20731707317074)"><path d="M12 .587l3.668 7.568 8.332 1.151-6.064 5.828 1.48 8.279-7.416-3.967-7.417 3.967 1.481-8.279-6.064-5.828 8.332-1.151z" transform="scale(0.45) translate(-12,-12)" fill="white" stroke="black"></path></g></g><g transform="translate(30,0)"><g transform="translate(60,260.3048780487805)"><path d="M12 0c-6.627 0-12 5.373-12 12s5.373 12 12 12 12-5.373 12-12-5.373-12-12-12zm7 14h-14v-4h14v4z" transform="scale(0.45) translate(-12,-12)" fill="white" stroke="black"></path></g></g><g transform="translate(30,0)"><g transform="translate(60,271.4024390243903)"><path d="M12 0c-6.627 0-12 5.373-12 12s5.373 12 12 12 12-5.373 12-12-5.373-12-12-12zm7 14h-14v-4h14v4z" transform="scale(0.45) translate(-12,-12)" fill="white" stroke="black"></path></g></g><g transform="translate(30,0)"><g transform="translate(60,282.5)"><path d="M12 0c-6.627 0-12 5.373-12 12s5.373 12 12 12 12-5.373 12-12-5.373-12-12-12zm7 14h-14v-4h14v4z" transform="scale(0.45) translate(-12,-12)" fill="white" stroke="black"></path></g></g><g transform="translate(30,0)"><g transform="translate(90,293.5975609756098)"><path d="M12 .587l3.668 7.568 8.332 1.151-6.064 5.828 1.48 8.279-7.416-3.967-7.417 3.967 1.481-8.279-6.064-5.828 8.332-1.151z" transform="scale(0.45) translate(-12,-12)" fill="white" stroke="black"></path></g></g><g transform="translate(30,0)"><g transform="translate(90,304.6951219512195)"><path d="M12 .587l3.668 7.568 8.332 1.151-6.064 5.828 1.48 8.279-7.416-3.967-7.417 3.967 1.481-8.279-6.064-5.828 8.332-1.151z" transform="scale(0.45) translate(-12,-12)" fill="white" stroke="black"></path></g></g><g transform="translate(30,0)"><g transform="translate(60,315.7926829268293)"><path d="M12 0c-6.627 0-12 5.373-12 12s5.373 12 12 12 12-5.373 12-12-5.373-12-12-12zm7 14h-14v-4h14v4z" transform="scale(0.45) translate(-12,-12)" fill="white" stroke="black"></path></g></g><g transform="translate(30,0)"><g transform="translate(60,326.89024390243907)"><path d="M12 0c-6.627 0-12 5.373-12 12s5.373 12 12 12 12-5.373 12-12-5.373-12-12-12zm7 14h-14v-4h14v4z" transform="scale(0.45) translate(-12,-12)" fill="white" stroke="black"></path></g></g><g transform="translate(30,0)"><g transform="translate(60,337.9878048780488)"><path d="M12 0c-6.627 0-12 5.373-12 12s5.373 12 12 12 12-5.373 12-12-5.373-12-12-12zm7 14h-14v-4h14v4z" transform="scale(0.45) translate(-12,-12)" fill="white" stroke="black"></path></g></g><g transform="translate(30,0)"><g transform="translate(60,349.0853658536586)"><path d="M12 0c-6.627 0-12 5.373-12 12s5.373 12 12 12 12-5.373 12-12-5.373-12-12-12zm7 14h-14v-4h14v4z" transform="scale(0.45) translate(-12,-12)" fill="white" stroke="black"></path></g></g><g transform="translate(30,0)"><g transform="translate(60,360.1829268292683)"><path d="M12 0c-6.627 0-12 5.373-12 12s5.373 12 12 12 12-5.373 12-12-5.373-12-12-12zm7 14h-14v-4h14v4z" transform="scale(0.45) translate(-12,-12)" fill="white" stroke="black"></path></g></g><g transform="translate(30,0)"><g transform="translate(90,371.2804878048781)"><path d="M12 .587l3.668 7.568 8.332 1.151-6.064 5.828 1.48 8.279-7.416-3.967-7.417 3.967 1.481-8.279-6.064-5.828 8.332-1.151z" transform="scale(0.45) translate(-12,-12)" fill="white" stroke="black"></path></g></g><g transform="translate(30,0)"><g transform="translate(90,382.3780487804878)"><path d="M12 .587l3.668 7.568 8.332 1.151-6.064 5.828 1.48 8.279-7.416-3.967-7.417 3.967 1.481-8.279-6.064-5.828 8.332-1.151z" transform="scale(0.45) translate(-12,-12)" fill="white" stroke="black"></path></g></g><g transform="translate(30,0)"><g transform="translate(60,393.4756097560976)"><path d="M12 0c-6.627 0-12 5.373-12 12s5.373 12 12 12 12-5.373 12-12-5.373-12-12-12zm7 14h-14v-4h14v4z" transform="scale(0.45) translate(-12,-12)" fill="white" stroke="black"></path></g></g><g transform="translate(30,0)"><g transform="translate(60,404.5731707317073)"><path d="M12 0c-6.627 0-12 5.373-12 12s5.373 12 12 12 12-5.373 12-12-5.373-12-12-12zm7 14h-14v-4h14v4z" transform="scale(0.45) translate(-12,-12)" fill="white" stroke="black"></path></g></g><g transform="translate(30,0)"><g transform="translate(60,415.6707317073171)"><path d="M12 0c-6.627 0-12 5.373-12 12s5.373 12 12 12 12-5.373 12-12-5.373-12-12-12zm7 14h-14v-4h14v4z" transform="scale(0.45) translate(-12,-12)" fill="white" stroke="black"></path></g></g><g transform="translate(30,0)"><g transform="translate(60,426.76829268292687)"><path d="M12 0c-6.627 0-12 5.373-12 12s5.373 12 12 12 12-5.373 12-12-5.373-12-12-12zm7 14h-14v-4h14v4z" transform="scale(0.45) translate(-12,-12)" fill="white" stroke="black"></path></g></g><g transform="translate(30,0)"><g transform="translate(60,437.8658536585366)"><path d="M12 0c-6.627 0-12 5.373-12 12s5.373 12 12 12 12-5.373 12-12-5.373-12-12-12zm7 14h-14v-4h14v4z" transform="scale(0.45) translate(-12,-12)" fill="white" stroke="black"></path></g></g><g transform="translate(30,0)"><g transform="translate(90,448.9634146341464)"><path d="M12 .587l3.668 7.568 8.332 1.151-6.064 5.828 1.48 8.279-7.416-3.967-7.417 3.967 1.481-8.279-6.064-5.828 8.332-1.151z" transform="scale(0.45) translate(-12,-12)" fill="white" stroke="black"></path></g></g><g transform="translate(30,0)"><g transform="translate(90,460.0609756097561)"><path d="M12 .587l3.668 7.568 8.332 1.151-6.064 5.828 1.48 8.279-7.416-3.967-7.417 3.967 1.481-8.279-6.064-5.828 8.332-1.151z" transform="scale(0.45) translate(-12,-12)" fill="white" stroke="black"></path></g></g><g transform="translate(30,0)"><g transform="translate(90,471.1585365853659)"><path d="M12 .587l3.668 7.568 8.332 1.151-6.064 5.828 1.48 8.279-7.416-3.967-7.417 3.967 1.481-8.279-6.064-5.828 8.332-1.151z" transform="scale(0.45) translate(-12,-12)" fill="white" stroke="black"></path></g></g><g transform="translate(30,0)"><g transform="translate(90,482.2560975609756)"><path d="M12 .587l3.668 7.568 8.332 1.151-6.064 5.828 1.48 8.279-7.416-3.967-7.417 3.967 1.481-8.279-6.064-5.828 8.332-1.151z" transform="scale(0.45) translate(-12,-12)" fill="white" stroke="black"></path></g></g><g transform="translate(30,0)"><g transform="translate(90,493.3536585365854)"><path d="M12 .587l3.668 7.568 8.332 1.151-6.064 5.828 1.48 8.279-7.416-3.967-7.417 3.967 1.481-8.279-6.064-5.828 8.332-1.151z" transform="scale(0.45) translate(-12,-12)" fill="white" stroke="black"></path></g></g><g transform="translate(30,0)"><g transform="translate(90,504.4512195121951)"><path d="M12 .587l3.668 7.568 8.332 1.151-6.064 5.828 1.48 8.279-7.416-3.967-7.417 3.967 1.481-8.279-6.064-5.828 8.332-1.151z" transform="scale(0.45) translate(-12,-12)" fill="white" stroke="black"></path></g></g><g><text x="182" y="60.548780487804876" text-anchor="middle" dominant-baseline="central" style="font-size: 1.5rem;">2015</text><text x="28" y="88.29268292682927" text-anchor="middle" dominant-baseline="central" style="font-size: 1.5rem;">2016</text><text x="182" y="149.32926829268294" text-anchor="middle" dominant-baseline="central" style="font-size: 1.5rem;">2017</text><text x="28" y="238.109756097561" text-anchor="middle" dominant-baseline="central" style="font-size: 1.5rem;">2018</text><text x="182" y="365.7317073170732" text-anchor="middle" dominant-baseline="central" style="font-size: 1.5rem;">2019</text><text x="28" y="476.7073170731707" text-anchor="middle" dominant-baseline="central" style="font-size: 1.5rem;">2020</text></g></g></svg>
