<svg xmlns="http://www.w3.org/2000/svg" viewBox="0 0 550 160" style="width: 100%;/* border: 1px solid black; */"><g><rect x="15" y="25" width="13.048780487804878" fill="#1f77b4" height="60"></rect><rect x="28.048780487804876" y="25" width="13.048780487804878" fill="#ff7f0e" height="60"></rect><rect x="41.09756097560975" y="25" width="13.048780487804878" fill="#ff7f0e" height="60"></rect><rect x="54.146341463414636" y="25" width="13.048780487804878" fill="#ff7f0e" height="60"></rect><rect x="67.1951219512195" y="25" width="13.048780487804878" fill="#ff7f0e" height="60"></rect><rect x="80.2439024390244" y="25" width="13.048780487804878" fill="#2ca02c" height="60"></rect><rect x="93.29268292682927" y="25" width="13.048780487804878" fill="#2ca02c" height="60"></rect><rect x="106.34146341463415" y="25" width="13.048780487804878" fill="#2ca02c" height="60"></rect><rect x="119.39024390243902" y="25" width="13.048780487804878" fill="#2ca02c" height="60"></rect><rect x="132.4390243902439" y="25" width="13.048780487804878" fill="#2ca02c" height="60"></rect><rect x="145.4878048780488" y="25" width="13.048780487804878" fill="#2ca02c" height="60"></rect><rect x="158.53658536585365" y="25" width="13.048780487804878" fill="#2ca02c" height="60"></rect><rect x="171.58536585365854" y="25" width="13.048780487804878" fill="#d62728" height="60"></rect><rect x="184.6341463414634" y="25" width="13.048780487804878" fill="#d62728" height="60"></rect><rect x="197.6829268292683" y="25" width="13.048780487804878" fill="#d62728" height="60"></rect><rect x="210.73170731707316" y="25" width="13.048780487804878" fill="#d62728" height="60"></rect><rect x="223.78048780487805" y="25" width="13.048780487804878" fill="#d62728" height="60"></rect><rect x="236.82926829268294" y="25" width="13.048780487804878" fill="#d62728" height="60"></rect><rect x="249.8780487804878" y="25" width="13.048780487804878" fill="#d62728" height="60"></rect><rect x="262.9268292682927" y="25" width="13.048780487804878" fill="#d62728" height="60"></rect><rect x="275.9756097560976" y="25" width="13.048780487804878" fill="#d62728" height="60"></rect><rect x="289.0243902439024" y="25" width="13.048780487804878" fill="#9467bd" height="60"></rect><rect x="302.0731707317073" y="25" width="13.048780487804878" fill="#9467bd" height="60"></rect><rect x="315.1219512195122" y="25" width="13.048780487804878" fill="#9467bd" height="60"></rect><rect x="328.1707317073171" y="25" width="13.048780487804878" fill="#9467bd" height="60"></rect><rect x="341.219512195122" y="25" width="13.048780487804878" fill="#9467bd" height="60"></rect><rect x="354.2682926829268" y="25" width="13.048780487804878" fill="#9467bd" height="60"></rect><rect x="367.3170731707317" y="25" width="13.048780487804878" fill="#9467bd" height="60"></rect><rect x="380.3658536585366" y="25" width="13.048780487804878" fill="#9467bd" height="60"></rect><rect x="393.4146341463415" y="25" width="13.048780487804878" fill="#9467bd" height="60"></rect><rect x="406.4634146341463" y="25" width="13.048780487804878" fill="#9467bd" height="60"></rect><rect x="419.5121951219512" y="25" width="13.048780487804878" fill="#9467bd" height="60"></rect><rect x="432.5609756097561" y="25" width="13.048780487804878" fill="#9467bd" height="60"></rect><rect x="445.609756097561" y="25" width="13.048780487804878" fill="#9467bd" height="60"></rect><rect x="458.6585365853659" y="25" width="13.048780487804878" fill="#9467bd" height="60"></rect><rect x="471.7073170731707" y="25" width="13.048780487804878" fill="#8c564b" height="60"></rect><rect x="484.7560975609756" y="25" width="13.048780487804878" fill="#8c564b" height="60"></rect><rect x="497.8048780487805" y="25" width="13.048780487804878" fill="#8c564b" height="60"></rect><rect x="510.8536585365854" y="25" width="13.048780487804878" fill="#8c564b" height="60"></rect><rect x="523.9024390243902" y="25" width="13.048780487804878" fill="#8c564b" height="60"></rect><rect x="536.9512195121952" y="25" width="13.048780487804878" fill="#8c564b" height="60"></rect><g transform="translate(0,10)"><line x1="21.524390243902438" y1="25" x2="34.573170731707314" y2="60" stroke-width="2" stroke="lightgray"></line></g><g transform="translate(0,10)"><line x1="34.573170731707314" y1="60" x2="47.62195121951219" y2="60" stroke-width="2" stroke="lightgray"></line></g><g transform="translate(0,10)"><line x1="47.62195121951219" y1="60" x2="60.670731707317074" y2="60" stroke-width="2" stroke="lightgray"></line></g><g transform="translate(0,10)"><line x1="60.670731707317074" y1="60" x2="73.71951219512195" y2="60" stroke-width="2" stroke="lightgray"></line></g><g transform="translate(0,10)"><line x1="73.71951219512195" y1="60" x2="86.76829268292684" y2="25" stroke-width="2" stroke="lightgray"></line></g><g transform="translate(0,10)"><line x1="86.76829268292684" y1="25" x2="99.81707317073172" y2="25" stroke-width="2" stroke="lightgray"></line></g><g transform="translate(0,10)"><line x1="99.81707317073172" y1="25" x2="112.8658536585366" y2="60" stroke-width="2" stroke="lightgray"></line></g><g transform="translate(0,10)"><line x1="112.8658536585366" y1="60" x2="125.91463414634147" y2="25" stroke-width="2" stroke="lightgray"></line></g><g transform="translate(0,10)"><line x1="125.91463414634147" y1="25" x2="138.96341463414635" y2="60" stroke-width="2" stroke="lightgray"></line></g><g transform="translate(0,10)"><line x1="138.96341463414635" y1="60" x2="152.01219512195124" y2="60" stroke-width="2" stroke="lightgray"></line></g><g transform="translate(0,10)"><line x1="152.01219512195124" y1="60" x2="165.0609756097561" y2="25" stroke-width="2" stroke="lightgray"></line></g><g transform="translate(0,10)"><line x1="165.0609756097561" y1="25" x2="178.109756097561" y2="60" stroke-width="2" stroke="lightgray"></line></g><g transform="translate(0,10)"><line x1="178.109756097561" y1="60" x2="191.15853658536585" y2="60" stroke-width="2" stroke="lightgray"></line></g><g transform="translate(0,10)"><line x1="191.15853658536585" y1="60" x2="204.20731707317074" y2="60" stroke-width="2" stroke="lightgray"></line></g><g transform="translate(0,10)"><line x1="204.20731707317074" y1="60" x2="217.2560975609756" y2="25" stroke-width="2" stroke="lightgray"></line></g><g transform="translate(0,10)"><line x1="217.2560975609756" y1="25" x2="230.3048780487805" y2="60" stroke-width="2" stroke="lightgray"></line></g><g transform="translate(0,10)"><line x1="230.3048780487805" y1="60" x2="243.35365853658539" y2="25" stroke-width="2" stroke="lightgray"></line></g><g transform="translate(0,10)"><line x1="243.35365853658539" y1="25" x2="256.4024390243902" y2="60" stroke-width="2" stroke="lightgray"></line></g><g transform="translate(0,10)"><line x1="256.4024390243902" y1="60" x2="269.4512195121951" y2="60" stroke-width="2" stroke="lightgray"></line></g><g transform="translate(0,10)"><line x1="269.4512195121951" y1="60" x2="282.5" y2="60" stroke-width="2" stroke="lightgray"></line></g><g transform="translate(0,10)"><line x1="282.5" y1="60" x2="295.54878048780483" y2="25" stroke-width="2" stroke="lightgray"></line></g><g transform="translate(0,10)"><line x1="295.54878048780483" y1="25" x2="308.5975609756097" y2="25" stroke-width="2" stroke="lightgray"></line></g><g transform="translate(0,10)"><line x1="308.5975609756097" y1="25" x2="321.6463414634146" y2="60" stroke-width="2" stroke="lightgray"></line></g><g transform="translate(0,10)"><line x1="321.6463414634146" y1="60" x2="334.6951219512195" y2="60" stroke-width="2" stroke="lightgray"></line></g><g transform="translate(0,10)"><line x1="334.6951219512195" y1="60" x2="347.7439024390244" y2="60" stroke-width="2" stroke="lightgray"></line></g><g transform="translate(0,10)"><line x1="347.7439024390244" y1="60" x2="360.79268292682923" y2="60" stroke-width="2" stroke="lightgray"></line></g><g transform="translate(0,10)"><line x1="360.79268292682923" y1="60" x2="373.8414634146341" y2="60" stroke-width="2" stroke="lightgray"></line></g><g transform="translate(0,10)"><line x1="373.8414634146341" y1="60" x2="386.890243902439" y2="25" stroke-width="2" stroke="lightgray"></line></g><g transform="translate(0,10)"><line x1="386.890243902439" y1="25" x2="399.9390243902439" y2="25" stroke-width="2" stroke="lightgray"></line></g><g transform="translate(0,10)"><line x1="399.9390243902439" y1="25" x2="412.98780487804873" y2="60" stroke-width="2" stroke="lightgray"></line></g><g transform="translate(0,10)"><line x1="412.98780487804873" y1="60" x2="426.0365853658536" y2="60" stroke-width="2" stroke="lightgray"></line></g><g transform="translate(0,10)"><line x1="426.0365853658536" y1="60" x2="439.0853658536585" y2="60" stroke-width="2" stroke="lightgray"></line></g><g transform="translate(0,10)"><line x1="439.0853658536585" y1="60" x2="452.1341463414634" y2="60" stroke-width="2" stroke="lightgray"></line></g><g transform="translate(0,10)"><line x1="452.1341463414634" y1="60" x2="465.1829268292683" y2="60" stroke-width="2" stroke="lightgray"></line></g><g transform="translate(0,10)"><line x1="465.1829268292683" y1="60" x2="478.23170731707313" y2="25" stroke-width="2" stroke="lightgray"></line></g><g transform="translate(0,10)"><line x1="478.23170731707313" y1="25" x2="491.280487804878" y2="25" stroke-width="2" stroke="lightgray"></line></g><g transform="translate(0,10)"><line x1="491.280487804878" y1="25" x2="504.3292682926829" y2="25" stroke-width="2" stroke="lightgray"></line></g><g transform="translate(0,10)"><line x1="504.3292682926829" y1="25" x2="517.3780487804878" y2="25" stroke-width="2" stroke="lightgray"></line></g><g transform="translate(0,10)"><line x1="517.3780487804878" y1="25" x2="530.4268292682926" y2="25" stroke-width="2" stroke="lightgray"></line></g><g transform="translate(0,10)"><line x1="530.4268292682926" y1="25" x2="543.4756097560976" y2="25" stroke-width="2" stroke="lightgray"></line></g><g transform="translate(0,10)"><g transform="translate(21.524390243902438,25)"><path d="M12 .587l3.668 7.568 8.332 1.151-6.064 5.828 1.48 8.279-7.416-3.967-7.417 3.967 1.481-8.279-6.064-5.828 8.332-1.151z" transform="scale(0.5) translate(-12,-12)" fill="white" stroke="black"></path></g></g><g transform="translate(0,10)"><g transform="translate(34.573170731707314,60)"><path d="M12 0c-6.627 0-12 5.373-12 12s5.373 12 12 12 12-5.373 12-12-5.373-12-12-12zm7 14h-14v-4h14v4z" transform="scale(0.5) translate(-12,-12)" fill="white" stroke="black"></path></g></g><g transform="translate(0,10)"><g transform="translate(47.62195121951219,60)"><path d="M12 0c-6.627 0-12 5.373-12 12s5.373 12 12 12 12-5.373 12-12-5.373-12-12-12zm7 14h-14v-4h14v4z" transform="scale(0.5) translate(-12,-12)" fill="white" stroke="black"></path></g></g><g transform="translate(0,10)"><g transform="translate(60.670731707317074,60)"><path d="M12 0c-6.627 0-12 5.373-12 12s5.373 12 12 12 12-5.373 12-12-5.373-12-12-12zm7 14h-14v-4h14v4z" transform="scale(0.5) translate(-12,-12)" fill="white" stroke="black"></path></g></g><g transform="translate(0,10)"><g transform="translate(73.71951219512195,60)"><path d="M12 0c-6.627 0-12 5.373-12 12s5.373 12 12 12 12-5.373 12-12-5.373-12-12-12zm7 14h-14v-4h14v4z" transform="scale(0.5) translate(-12,-12)" fill="white" stroke="black"></path></g></g><g transform="translate(0,10)"><g transform="translate(86.76829268292684,25)"><path d="M12 .587l3.668 7.568 8.332 1.151-6.064 5.828 1.48 8.279-7.416-3.967-7.417 3.967 1.481-8.279-6.064-5.828 8.332-1.151z" transform="scale(0.5) translate(-12,-12)" fill="white" stroke="black"></path></g></g><g transform="translate(0,10)"><g transform="translate(99.81707317073172,25)"><path d="M12 .587l3.668 7.568 8.332 1.151-6.064 5.828 1.48 8.279-7.416-3.967-7.417 3.967 1.481-8.279-6.064-5.828 8.332-1.151z" transform="scale(0.5) translate(-12,-12)" fill="white" stroke="black"></path></g></g><g transform="translate(0,10)"><g transform="translate(112.8658536585366,60)"><path d="M12 0c-6.627 0-12 5.373-12 12s5.373 12 12 12 12-5.373 12-12-5.373-12-12-12zm7 14h-14v-4h14v4z" transform="scale(0.5) translate(-12,-12)" fill="white" stroke="black"></path></g></g><g transform="translate(0,10)"><g transform="translate(125.91463414634147,25)"><path d="M12 .587l3.668 7.568 8.332 1.151-6.064 5.828 1.48 8.279-7.416-3.967-7.417 3.967 1.481-8.279-6.064-5.828 8.332-1.151z" transform="scale(0.5) translate(-12,-12)" fill="white" stroke="black"></path></g></g><g transform="translate(0,10)"><g transform="translate(138.96341463414635,60)"><path d="M12 0c-6.627 0-12 5.373-12 12s5.373 12 12 12 12-5.373 12-12-5.373-12-12-12zm7 14h-14v-4h14v4z" transform="scale(0.5) translate(-12,-12)" fill="white" stroke="black"></path></g></g><g transform="translate(0,10)"><g transform="translate(152.01219512195124,60)"><path d="M12 0c-6.627 0-12 5.373-12 12s5.373 12 12 12 12-5.373 12-12-5.373-12-12-12zm7 14h-14v-4h14v4z" transform="scale(0.5) translate(-12,-12)" fill="white" stroke="black"></path></g></g><g transform="translate(0,10)"><g transform="translate(165.0609756097561,25)"><path d="M12 .587l3.668 7.568 8.332 1.151-6.064 5.828 1.48 8.279-7.416-3.967-7.417 3.967 1.481-8.279-6.064-5.828 8.332-1.151z" transform="scale(0.5) translate(-12,-12)" fill="white" stroke="black"></path></g></g><g transform="translate(0,10)"><g transform="translate(178.109756097561,60)"><path d="M12 0c-6.627 0-12 5.373-12 12s5.373 12 12 12 12-5.373 12-12-5.373-12-12-12zm7 14h-14v-4h14v4z" transform="scale(0.5) translate(-12,-12)" fill="white" stroke="black"></path></g></g><g transform="translate(0,10)"><g transform="translate(191.15853658536585,60)"><path d="M12 0c-6.627 0-12 5.373-12 12s5.373 12 12 12 12-5.373 12-12-5.373-12-12-12zm7 14h-14v-4h14v4z" transform="scale(0.5) translate(-12,-12)" fill="white" stroke="black"></path></g></g><g transform="translate(0,10)"><g transform="translate(204.20731707317074,60)"><path d="M12 0c-6.627 0-12 5.373-12 12s5.373 12 12 12 12-5.373 12-12-5.373-12-12-12zm7 14h-14v-4h14v4z" transform="scale(0.5) translate(-12,-12)" fill="white" stroke="black"></path></g></g><g transform="translate(0,10)"><g transform="translate(217.2560975609756,25)"><path d="M12 .587l3.668 7.568 8.332 1.151-6.064 5.828 1.48 8.279-7.416-3.967-7.417 3.967 1.481-8.279-6.064-5.828 8.332-1.151z" transform="scale(0.5) translate(-12,-12)" fill="white" stroke="black"></path></g></g><g transform="translate(0,10)"><g transform="translate(230.3048780487805,60)"><path d="M12 0c-6.627 0-12 5.373-12 12s5.373 12 12 12 12-5.373 12-12-5.373-12-12-12zm7 14h-14v-4h14v4z" transform="scale(0.5) translate(-12,-12)" fill="white" stroke="black"></path></g></g><g transform="translate(0,10)"><g transform="translate(243.35365853658539,25)"><path d="M12 .587l3.668 7.568 8.332 1.151-6.064 5.828 1.48 8.279-7.416-3.967-7.417 3.967 1.481-8.279-6.064-5.828 8.332-1.151z" transform="scale(0.5) translate(-12,-12)" fill="white" stroke="black"></path></g></g><g transform="translate(0,10)"><g transform="translate(256.4024390243902,60)"><path d="M12 0c-6.627 0-12 5.373-12 12s5.373 12 12 12 12-5.373 12-12-5.373-12-12-12zm7 14h-14v-4h14v4z" transform="scale(0.5) translate(-12,-12)" fill="white" stroke="black"></path></g></g><g transform="translate(0,10)"><g transform="translate(269.4512195121951,60)"><path d="M12 0c-6.627 0-12 5.373-12 12s5.373 12 12 12 12-5.373 12-12-5.373-12-12-12zm7 14h-14v-4h14v4z" transform="scale(0.5) translate(-12,-12)" fill="white" stroke="black"></path></g></g><g transform="translate(0,10)"><g transform="translate(282.5,60)"><path d="M12 0c-6.627 0-12 5.373-12 12s5.373 12 12 12 12-5.373 12-12-5.373-12-12-12zm7 14h-14v-4h14v4z" transform="scale(0.5) translate(-12,-12)" fill="white" stroke="black"></path></g></g><g transform="translate(0,10)"><g transform="translate(295.54878048780483,25)"><path d="M12 .587l3.668 7.568 8.332 1.151-6.064 5.828 1.48 8.279-7.416-3.967-7.417 3.967 1.481-8.279-6.064-5.828 8.332-1.151z" transform="scale(0.5) translate(-12,-12)" fill="white" stroke="black"></path></g></g><g transform="translate(0,10)"><g transform="translate(308.5975609756097,25)"><path d="M12 .587l3.668 7.568 8.332 1.151-6.064 5.828 1.48 8.279-7.416-3.967-7.417 3.967 1.481-8.279-6.064-5.828 8.332-1.151z" transform="scale(0.5) translate(-12,-12)" fill="white" stroke="black"></path></g></g><g transform="translate(0,10)"><g transform="translate(321.6463414634146,60)"><path d="M12 0c-6.627 0-12 5.373-12 12s5.373 12 12 12 12-5.373 12-12-5.373-12-12-12zm7 14h-14v-4h14v4z" transform="scale(0.5) translate(-12,-12)" fill="white" stroke="black"></path></g></g><g transform="translate(0,10)"><g transform="translate(334.6951219512195,60)"><path d="M12 0c-6.627 0-12 5.373-12 12s5.373 12 12 12 12-5.373 12-12-5.373-12-12-12zm7 14h-14v-4h14v4z" transform="scale(0.5) translate(-12,-12)" fill="white" stroke="black"></path></g></g><g transform="translate(0,10)"><g transform="translate(347.7439024390244,60)"><path d="M12 0c-6.627 0-12 5.373-12 12s5.373 12 12 12 12-5.373 12-12-5.373-12-12-12zm7 14h-14v-4h14v4z" transform="scale(0.5) translate(-12,-12)" fill="white" stroke="black"></path></g></g><g transform="translate(0,10)"><g transform="translate(360.79268292682923,60)"><path d="M12 0c-6.627 0-12 5.373-12 12s5.373 12 12 12 12-5.373 12-12-5.373-12-12-12zm7 14h-14v-4h14v4z" transform="scale(0.5) translate(-12,-12)" fill="white" stroke="black"></path></g></g><g transform="translate(0,10)"><g transform="translate(373.8414634146341,60)"><path d="M12 0c-6.627 0-12 5.373-12 12s5.373 12 12 12 12-5.373 12-12-5.373-12-12-12zm7 14h-14v-4h14v4z" transform="scale(0.5) translate(-12,-12)" fill="white" stroke="black"></path></g></g><g transform="translate(0,10)"><g transform="translate(386.890243902439,25)"><path d="M12 .587l3.668 7.568 8.332 1.151-6.064 5.828 1.48 8.279-7.416-3.967-7.417 3.967 1.481-8.279-6.064-5.828 8.332-1.151z" transform="scale(0.5) translate(-12,-12)" fill="white" stroke="black"></path></g></g><g transform="translate(0,10)"><g transform="translate(399.9390243902439,25)"><path d="M12 .587l3.668 7.568 8.332 1.151-6.064 5.828 1.48 8.279-7.416-3.967-7.417 3.967 1.481-8.279-6.064-5.828 8.332-1.151z" transform="scale(0.5) translate(-12,-12)" fill="white" stroke="black"></path></g></g><g transform="translate(0,10)"><g transform="translate(412.98780487804873,60)"><path d="M12 0c-6.627 0-12 5.373-12 12s5.373 12 12 12 12-5.373 12-12-5.373-12-12-12zm7 14h-14v-4h14v4z" transform="scale(0.5) translate(-12,-12)" fill="white" stroke="black"></path></g></g><g transform="translate(0,10)"><g transform="translate(426.0365853658536,60)"><path d="M12 0c-6.627 0-12 5.373-12 12s5.373 12 12 12 12-5.373 12-12-5.373-12-12-12zm7 14h-14v-4h14v4z" transform="scale(0.5) translate(-12,-12)" fill="white" stroke="black"></path></g></g><g transform="translate(0,10)"><g transform="translate(439.0853658536585,60)"><path d="M12 0c-6.627 0-12 5.373-12 12s5.373 12 12 12 12-5.373 12-12-5.373-12-12-12zm7 14h-14v-4h14v4z" transform="scale(0.5) translate(-12,-12)" fill="white" stroke="black"></path></g></g><g transform="translate(0,10)"><g transform="translate(452.1341463414634,60)"><path d="M12 0c-6.627 0-12 5.373-12 12s5.373 12 12 12 12-5.373 12-12-5.373-12-12-12zm7 14h-14v-4h14v4z" transform="scale(0.5) translate(-12,-12)" fill="white" stroke="black"></path></g></g><g transform="translate(0,10)"><g transform="translate(465.1829268292683,60)"><path d="M12 0c-6.627 0-12 5.373-12 12s5.373 12 12 12 12-5.373 12-12-5.373-12-12-12zm7 14h-14v-4h14v4z" transform="scale(0.5) translate(-12,-12)" fill="white" stroke="black"></path></g></g><g transform="translate(0,10)"><g transform="translate(478.23170731707313,25)"><path d="M12 .587l3.668 7.568 8.332 1.151-6.064 5.828 1.48 8.279-7.416-3.967-7.417 3.967 1.481-8.279-6.064-5.828 8.332-1.151z" transform="scale(0.5) translate(-12,-12)" fill="white" stroke="black"></path></g></g><g transform="translate(0,10)"><g transform="translate(491.280487804878,25)"><path d="M12 .587l3.668 7.568 8.332 1.151-6.064 5.828 1.48 8.279-7.416-3.967-7.417 3.967 1.481-8.279-6.064-5.828 8.332-1.151z" transform="scale(0.5) translate(-12,-12)" fill="white" stroke="black"></path></g></g><g transform="translate(0,10)"><g transform="translate(504.3292682926829,25)"><path d="M12 .587l3.668 7.568 8.332 1.151-6.064 5.828 1.48 8.279-7.416-3.967-7.417 3.967 1.481-8.279-6.064-5.828 8.332-1.151z" transform="scale(0.5) translate(-12,-12)" fill="white" stroke="black"></path></g></g><g transform="translate(0,10)"><g transform="translate(517.3780487804878,25)"><path d="M12 .587l3.668 7.568 8.332 1.151-6.064 5.828 1.48 8.279-7.416-3.967-7.417 3.967 1.481-8.279-6.064-5.828 8.332-1.151z" transform="scale(0.5) translate(-12,-12)" fill="white" stroke="black"></path></g></g><g transform="translate(0,10)"><g transform="translate(530.4268292682926,25)"><path d="M12 .587l3.668 7.568 8.332 1.151-6.064 5.828 1.48 8.279-7.416-3.967-7.417 3.967 1.481-8.279-6.064-5.828 8.332-1.151z" transform="scale(0.5) translate(-12,-12)" fill="white" stroke="black"></path></g></g><g transform="translate(0,10)"><g transform="translate(543.4756097560976,25)"><path d="M12 .587l3.668 7.568 8.332 1.151-6.064 5.828 1.48 8.279-7.416-3.967-7.417 3.967 1.481-8.279-6.064-5.828 8.332-1.151z" transform="scale(0.5) translate(-12,-12)" fill="white" stroke="black"></path></g></g><g><text x="26.463414634146343" y="100" text-anchor="middle" dominant-baseline="central" style="font-size: 1.5rem;">2015</text><text x="58.78048780487806" y="10" text-anchor="middle" dominant-baseline="central" style="font-size: 1.5rem;">2016</text><text x="129.87804878048783" y="100" text-anchor="middle" dominant-baseline="central" style="font-size: 1.5rem;">2017</text><text x="233.2926829268293" y="10" text-anchor="middle" dominant-baseline="central" style="font-size: 1.5rem;">2018</text><text x="381.9512195121951" y="100" text-anchor="middle" dominant-baseline="central" style="font-size: 1.5rem;">2019</text><text x="511.219512195122" y="10" text-anchor="middle" dominant-baseline="central" style="font-size: 1.5rem;">2020</text></g></g><g transform="translate(10, 130)"><g transform="translate(0,-6)"><path d="M12 .587l3.668 7.568 8.332 1.151-6.064 5.828 1.48 8.279-7.416-3.967-7.417 3.967 1.481-8.279-6.064-5.828 8.332-1.151z" transform="scale(0.5) translate(-12,-12)" fill="white" stroke="black"></path></g><text x="10">Succeeded Side Project</text><g transform="translate(0,20)"><g transform="translate(0,-6)"><path d="M12 0c-6.627 0-12 5.373-12 12s5.373 12 12 12 12-5.373 12-12-5.373-12-12-12zm7 14h-14v-4h14v4z" transform="scale(0.5) translate(-12,-12)" fill="white" stroke="black"></path></g><text x="10">Failed Side Project</text></g></g></svg>
